<svg id="visual" viewBox="0 0 900 600" width="900" height="600" xmlns="http://www.w3.org/2000/svg" xmlns:xlink="http://www.w3.org/1999/xlink" version="1.1"><rect x="0" y="0" width="900" height="600" fill="#ffffff"></rect><defs><linearGradient id="grad1_0" x1="33.3%" y1="0%" x2="100%" y2="100%"><stop offset="20%" stop-color="#ffffff" stop-opacity="1"></stop><stop offset="80%" stop-color="#ffffff" stop-opacity="1"></stop></linearGradient></defs><defs><linearGradient id="grad2_0" x1="0%" y1="0%" x2="66.7%" y2="100%"><stop offset="20%" stop-color="#ffffff" stop-opacity="1"></stop><stop offset="80%" stop-color="#ffffff" stop-opacity="1"></stop></linearGradient></defs><g transform="translate(900, 0)"><path d="M0 378.6C-29 377.4 -58 376.2 -82.8 362.7C-107.6 349.2 -128.2 323.4 -145.8 302.7C-163.4 282 -178.1 266.4 -207 259.6C-235.9 252.7 -279 254.7 -296 236C-313 217.4 -303.9 178 -310.8 149.7C-317.8 121.4 -340.9 104.1 -354.9 81C-368.8 57.9 -373.7 28.9 -378.6 0L0 0Z" fill="#9cb427"></path></g><g transform="translate(0, 600)"><path d="M0 -378.6C26.4 -359.5 52.8 -340.3 73.7 -322.7C94.5 -305.1 109.9 -288.9 139.3 -289.2C168.7 -289.5 212.2 -306.2 236 -296C259.9 -285.8 264 -248.7 278.3 -222C292.6 -195.2 317.1 -178.9 321.6 -154.9C326.2 -130.9 310.7 -99.4 316.9 -72.3C323 -45.2 350.8 -22.6 378.6 0L0 0Z" fill="#9cb427"></path></g></svg>