<svg id="visual" viewBox="0 0 900 600" width="900" height="600" xmlns="http://www.w3.org/2000/svg" xmlns:xlink="http://www.w3.org/1999/xlink" version="1.1"><path d="M0 85L13.7 87C27.3 89 54.7 93 82 100C109.3 107 136.7 117 163.8 121C191 125 218 123 245.2 114C272.3 105 299.7 89 327 79C354.3 69 381.7 65 409 72C436.3 79 463.7 97 491 95C518.3 93 545.7 71 573 69C600.3 67 627.7 85 654.8 90C682 95 709 87 736.2 86C763.3 85 790.7 91 818 94C845.3 97 872.7 97 886.3 97L900 97L900 0L886.3 0C872.7 0 845.3 0 818 0C790.7 0 763.3 0 736.2 0C709 0 682 0 654.8 0C627.7 0 600.3 0 573 0C545.7 0 518.3 0 491 0C463.7 0 436.3 0 409 0C381.7 0 354.3 0 327 0C299.7 0 272.3 0 245.2 0C218 0 191 0 163.8 0C136.7 0 109.3 0 82 0C54.7 0 27.3 0 13.7 0L0 0Z" fill="#b8c964"></path><path d="M0 175L13.7 176C27.3 177 54.7 179 82 181C109.3 183 136.7 185 163.8 184C191 183 218 179 245.2 166C272.3 153 299.7 131 327 124C354.3 117 381.7 125 409 139C436.3 153 463.7 173 491 176C518.3 179 545.7 165 573 159C600.3 153 627.7 155 654.8 149C682 143 709 129 736.2 126C763.3 123 790.7 131 818 142C845.3 153 872.7 167 886.3 174L900 181L900 95L886.3 95C872.7 95 845.3 95 818 92C790.7 89 763.3 83 736.2 84C709 85 682 93 654.8 88C627.7 83 600.3 65 573 67C545.7 69 518.3 91 491 93C463.7 95 436.3 77 409 70C381.7 63 354.3 67 327 77C299.7 87 272.3 103 245.2 112C218 121 191 123 163.8 119C136.7 115 109.3 105 82 98C54.7 91 27.3 87 13.7 85L0 83Z" fill="#aabe48"></path><path d="M0 265L13.7 287C27.3 309 54.7 353 82 362C109.3 371 136.7 345 163.8 344C191 343 218 367 245.2 363C272.3 359 299.7 327 327 327C354.3 327 381.7 359 409 370C436.3 381 463.7 371 491 356C518.3 341 545.7 321 573 314C600.3 307 627.7 313 654.8 304C682 295 709 271 736.2 266C763.3 261 790.7 275 818 293C845.3 311 872.7 333 886.3 344L900 355L900 179L886.3 172C872.7 165 845.3 151 818 140C790.7 129 763.3 121 736.2 124C709 127 682 141 654.8 147C627.7 153 600.3 151 573 157C545.7 163 518.3 177 491 174C463.7 171 436.3 151 409 137C381.7 123 354.3 115 327 122C299.7 129 272.3 151 245.2 164C218 177 191 181 163.8 182C136.7 183 109.3 181 82 179C54.7 177 27.3 175 13.7 174L0 173Z" fill="#9cb427"></path><path d="M0 415L13.7 425C27.3 435 54.7 455 82 449C109.3 443 136.7 411 163.8 416C191 421 218 463 245.2 475C272.3 487 299.7 469 327 465C354.3 461 381.7 471 409 476C436.3 481 463.7 481 491 478C518.3 475 545.7 469 573 455C600.3 441 627.7 419 654.8 405C682 391 709 385 736.2 382C763.3 379 790.7 379 818 383C845.3 387 872.7 395 886.3 399L900 403L900 353L886.3 342C872.7 331 845.3 309 818 291C790.7 273 763.3 259 736.2 264C709 269 682 293 654.8 302C627.7 311 600.3 305 573 312C545.7 319 518.3 339 491 354C463.7 369 436.3 379 409 368C381.7 357 354.3 325 327 325C299.7 325 272.3 357 245.2 361C218 365 191 341 163.8 342C136.7 343 109.3 369 82 360C54.7 351 27.3 307 13.7 285L0 263Z" fill="#879c23"></path><path d="M0 601L13.7 601C27.3 601 54.7 601 82 601C109.3 601 136.7 601 163.8 601C191 601 218 601 245.2 601C272.3 601 299.7 601 327 601C354.3 601 381.7 601 409 601C436.3 601 463.7 601 491 601C518.3 601 545.7 601 573 601C600.3 601 627.7 601 654.8 601C682 601 709 601 736.2 601C763.3 601 790.7 601 818 601C845.3 601 872.7 601 886.3 601L900 601L900 401L886.3 397C872.7 393 845.3 385 818 381C790.7 377 763.3 377 736.2 380C709 383 682 389 654.8 403C627.7 417 600.3 439 573 453C545.7 467 518.3 473 491 476C463.7 479 436.3 479 409 474C381.7 469 354.3 459 327 463C299.7 467 272.3 485 245.2 473C218 461 191 419 163.8 414C136.7 409 109.3 441 82 447C54.7 453 27.3 433 13.7 423L0 413Z" fill="#72841e"></path></svg>